<svg xmlns="http://www.w3.org/2000/svg" width="600" height="115" viewBox="0 0 600 115">
  <g fill="#FFF" fill-rule="evenodd">
    <path d="M74.613064,52.360601 L23.1743046,52.360601 L23.1743046,91.7539639 C23.2562465,94.6219298 23.7991033,97.3362139 24.8028913,99.8968977 C25.8066794,102.457582 27.2713686,104.51634 29.1970028,106.073236 C31.122637,107.630132 33.3964902,108.408568 36.0186304,108.408568 C39.8289279,108.408568 43.0655837,107.558434 45.7286949,105.85814 C48.3918061,104.157846 50.4812927,102.088844 51.9972176,99.6510733 C53.5131424,97.2133023 54.598856,94.8370234 55.2543911,92.5221652 C55.9099261,90.207307 56.2376888,88.3329146 56.2376888,86.8989316 L56.2376888,62.4394021 L68.713278,62.4394021 L68.713278,114.800003 C67.8528882,114.308352 65.9989809,113.42749 63.1515005,112.157391 C60.3040201,110.887291 57.9584689,109.842548 56.1147765,109.023129 L56.1147765,104.106641 C53.9842876,105.663537 51.9152861,107.0258 49.90771,108.193472 C47.9001339,109.361144 45.8311324,110.231763 43.7006435,110.805356 C41.5701545,111.378949 39.0914498,111.665742 36.2644548,111.665742 C32.1673607,111.665742 28.1829964,110.600513 24.3112425,108.470024 C20.4394886,106.339535 17.3257438,103.430642 14.9699146,99.7432575 C12.6140855,96.0558728 11.4361886,92.0612659 11.4361886,87.7593171 L11.4361886,52.360601 L4,52.360601 L4,44.9858684 L74.613064,44.9858684 L74.613064,52.360601 Z M135.638976,52.360601 L73.5068541,52.360601 L73.5068541,44.9858684 L135.638976,44.9858684 L135.638976,52.360601 Z M130.538119,74.4233424 C130.538119,77.0864536 129.032459,79.8314655 126.021095,82.6584604 C123.009731,85.4854554 120.479813,87.3905756 118.431266,88.3738782 L109.212851,77.9263404 C112.65441,77.5985729 115.55306,76.3592205 117.90889,74.2082461 C120.264719,72.0572717 121.442616,69.9370573 121.442616,67.8475393 C121.442616,66.9871495 120.766605,65.9526488 119.414564,64.744006 C118.062523,63.5353632 116.300799,62.9310509 114.129339,62.9310509 C111.466228,62.9310509 108.454909,64.1601607 105.095292,66.6184172 C101.735675,69.0766737 98.8779943,72.251874 96.5221652,76.1441134 C94.1663361,80.0363528 92.9884392,83.949019 92.9884392,87.8822293 L92.9884392,113.939618 L81.1888671,107.794007 L81.1888671,62.3164899 L93.1113514,62.3164899 L93.1113514,66.9871538 C93.4391189,66.6593863 94.6477436,65.9014352 96.7372616,64.713278 C98.8267796,63.5251207 101.254271,62.4496496 104.01981,61.4868325 C106.785348,60.5240154 109.581573,60.042614 112.408568,60.042614 C114.784883,60.042614 117.396741,60.6264412 120.244222,61.794113 C123.091702,62.9617848 125.519194,64.6518108 127.52677,66.8642416 C129.534346,69.0766724 130.538119,71.5963475 130.538119,74.4233424 Z M201.888656,52.360601 L155.182017,52.360601 L155.182017,75.2837279 C156.001436,74.2594544 157.425155,72.702582 159.453216,70.613064 C161.481278,68.523546 164.103379,66.4340593 167.319597,64.3445413 C170.535816,62.2550233 173.741744,61.21028 176.937478,61.21028 C180.256124,61.21028 183.308413,61.896533 186.094437,63.2690595 C188.880461,64.641586 191.266983,66.4442804 193.254074,68.6771967 C195.241164,70.910113 196.757066,73.3376048 197.801825,75.9597451 C198.846584,78.5818853 199.368956,81.0810752 199.368956,83.4573898 C199.368956,86.9808907 198.447124,90.4531259 196.603431,93.8741995 C194.759739,97.2952731 192.393703,100.327077 189.505251,102.969703 C186.6168,105.612329 183.605481,107.7223 180.471204,109.299682 C177.336927,110.877063 174.643128,111.665742 172.389726,111.665742 C169.562731,111.665742 167.012328,110.815607 164.738441,109.115313 C162.464554,107.415019 159.11523,104.311517 154.690368,99.8047136 L154.690368,112.403215 L143.997006,107.794007 L143.997006,52.360601 L133.918205,52.360601 L133.918205,44.9858684 L143.997006,44.9858684 C143.997006,39.700617 143.187842,34.5485985 141.56949,29.5296582 C139.951138,24.5107179 138.035775,20.0961652 135.823344,16.2858677 C133.610913,12.4755701 131.326817,9.0955182 128.970988,6.14561044 C126.615159,3.19570268 124.781737,1.14718635 123.470667,0 L136.929554,0 C138.527421,1.35204106 140.166234,2.93964121 141.846042,4.76284809 C143.525851,6.58605497 145.430971,9.3617946 147.56146,13.0901502 C149.691949,16.8185059 151.494643,21.345727 152.969597,26.6719493 C154.444551,31.9981717 155.182017,38.1027503 155.182017,44.9858684 L201.888656,44.9858684 L201.888656,52.360601 Z M192.547328,89.7873686 C192.547328,88.10756 191.983986,86.1512269 190.857285,83.9183106 C189.730585,81.6853943 188.16347,79.5242096 186.155893,77.4346916 C184.148317,75.3451736 181.70034,73.5834495 178.811889,72.1494666 C175.923438,70.7154836 172.860906,69.9985029 169.624201,69.9985029 C167.657596,69.9985029 165.660293,70.5925727 163.632231,71.78073 C161.60417,72.9688873 159.914144,74.3311506 158.562103,75.8675609 C157.210062,77.4039712 156.534051,78.5613829 156.534051,79.3398308 C156.534051,82.1668257 157.773404,85.6595461 160.252145,89.8180966 C162.730887,93.9766471 165.87536,97.5922785 169.685658,100.665099 C173.495955,103.73792 177.224255,105.274307 180.870669,105.274307 C182.960187,105.274307 184.896034,104.495871 186.67827,102.938975 C188.460506,101.382079 189.884225,99.3950183 190.94947,96.9777328 C192.014714,94.5604472 192.547328,92.1636831 192.547328,89.7873686 Z M261.132341,52.360601 L220.202575,52.360601 L220.202575,62.1935777 C220.40743,62.1935777 220.571311,62.2755183 220.694224,62.4394021 C220.817137,62.6032859 220.960533,62.6852265 221.124417,62.6852265 C221.042475,62.6852265 221.892609,62.4394045 223.674845,61.9477533 C225.457081,61.456102 227.495355,61.0156709 229.789728,60.626447 C232.0841,60.2372231 234.296498,60.042614 236.426987,60.042614 C241.3435,60.042614 245.215196,60.7186244 248.042191,62.0706655 C250.869186,63.4227065 252.907459,65.3278267 254.157073,67.7860832 C255.406687,70.2443396 256.164638,72.9995941 256.430949,76.0519292 C256.69726,79.1042643 256.830414,83.2934802 256.830414,88.6197026 L256.830414,112.894864 C254.577012,111.993503 252.548981,111.102399 250.746259,110.221523 C248.943538,109.340648 247.693943,108.695365 246.997437,108.285656 C246.997437,106.933615 246.751615,106.093723 246.259964,105.765956 C244.907923,106.544404 243.39202,107.394538 241.712212,108.316384 C240.032403,109.23823 237.840491,110.047394 235.136409,110.7439 C232.432327,111.440406 229.216156,111.788654 225.4878,111.788654 C221.923328,111.788654 218.440851,111.133129 215.040263,109.822059 C211.639674,108.510988 208.88442,106.636596 206.774417,104.198825 C204.664413,101.761054 203.609427,99.0057996 203.609427,95.932979 C203.609427,93.0650131 204.940963,90.0639367 207.604074,86.9296597 C210.267185,83.7953827 213.831604,81.193767 218.297436,79.1247344 C222.763269,77.0557019 227.638738,76.0212012 232.923989,76.0212012 C235.791955,76.0212012 238.516482,76.441147 241.097651,77.2810513 C243.67882,78.1209556 245.645396,79.0530305 246.997437,80.0773041 L246.997437,74.4233424 C245.39957,72.2928535 243.801727,70.8179218 242.203861,69.9985029 C240.605994,69.1790841 238.147774,68.7693808 234.829128,68.7693808 C230.527179,68.9332646 227.136885,69.291755 224.658143,69.8448627 C222.179401,70.3979704 219.51633,71.2583472 216.668849,72.4260191 C213.821369,73.5936909 211.434847,74.5052806 209.509213,75.1608157 L209.509213,70.613064 C209.79601,70.3672383 210.205713,70.0189906 210.738335,69.5683102 C211.270957,69.1176298 211.629448,68.7898672 211.813817,68.5850125 C211.998186,68.3801578 212.110855,68.2572468 212.151826,68.2162759 L212.151826,52.360601 L199.553324,52.360601 L199.553324,44.9858684 L261.132341,44.9858684 L261.132341,52.360601 Z M246.997437,91.2623151 C246.997437,89.3776518 244.887465,87.8002942 240.667458,86.530195 C236.447451,85.2600958 233.456617,84.6250558 231.694867,84.6250558 C227.229034,84.6250558 223.162729,85.5673733 219.49583,87.4520366 C215.828931,89.3366999 212.950765,91.5183698 210.861247,93.9971117 C208.771729,96.4758536 207.726986,98.5141274 207.726986,100.111994 C208.300579,101.832774 209.580902,103.010671 211.567993,103.64572 C213.555083,104.28077 215.675298,104.59829 217.928699,104.59829 C222.107735,104.59829 225.989674,104.04519 229.574631,102.938975 C233.159589,101.832759 236.263091,100.470496 238.885231,98.852144 C241.507371,97.2337918 243.514917,95.687162 244.907929,94.2122081 C246.300941,92.7372542 246.997437,91.7539664 246.997437,91.2623151 Z M325.845619,52.360601 L259.780307,52.360601 L259.780307,44.9858684 L325.845619,44.9858684 L325.845619,52.360601 Z M312.632556,79.3398308 C312.632556,69.5068049 307.982424,64.5903657 298.682021,64.5903657 C295.977939,64.5903657 293.202199,65.3892871 290.354719,66.9871538 C287.507238,68.5850205 284.967078,70.7974182 282.734162,73.6244131 C280.501245,76.451408 278.698551,79.8109748 277.326024,83.7032142 C275.953498,87.5954536 275.267245,91.6310308 275.267245,95.8100668 L275.267245,113.693793 L265.188444,108.408568 L265.188444,62.1935777 L275.758894,62.1935777 L275.758894,69.5068541 C276.619283,68.851319 278.043002,67.7451202 280.030093,66.1882245 C282.017184,64.6313287 284.434433,63.1973673 287.281913,61.8862971 C290.129394,60.575227 293.212411,59.9197018 296.531057,59.9197018 C299.767761,59.9197018 302.881506,60.6161974 305.872385,62.0092094 C308.863264,63.4022214 311.526335,65.3483119 313.861678,67.8475393 C316.197022,70.3467667 318.040687,73.2863876 319.392728,76.6664903 C320.744769,80.0465929 321.420779,83.6622242 321.420779,87.5134927 C321.420779,91.8564125 320.478462,96.2914503 318.593799,100.818739 C316.709135,105.346028 313.718301,109.842522 309.621207,114.308354 L297.760179,106.872166 C298.497656,105.888863 299.870162,104.454902 301.877738,102.570238 C303.885314,100.685575 305.647038,98.7702122 307.162963,96.8240925 C308.678888,94.8779728 309.969453,92.4607235 311.034698,89.5722722 C312.099942,86.6838208 312.632556,83.2730412 312.632556,79.3398308 Z M432.164679,52.360601 L382.569603,52.360601 L382.569603,70.8588884 C383.470964,69.8755858 384.495222,68.7898722 385.642408,67.6017149 C386.789595,66.4135576 388.100645,65.2868736 389.575599,64.2216291 C391.050553,63.1563846 392.853247,62.2345523 394.983736,61.4561044 C397.114225,60.6776565 399.510989,60.2884384 402.174101,60.2884384 C407.213526,60.2884384 411.669049,61.671187 415.540803,64.4367255 C419.412557,67.202264 422.434119,70.7359547 424.605579,75.0379035 C426.777039,79.3398523 427.862752,83.5802811 427.862752,87.7593171 C427.862752,92.1022369 426.818009,96.1173289 424.728491,99.8047136 C422.638973,103.492098 420.549486,106.360021 418.459968,108.408568 C416.37045,110.457115 414.813578,111.870592 413.789304,112.649039 L403.710503,106.626341 C404.284096,105.806922 405.513206,104.434416 407.397869,102.508782 C409.282533,100.583148 410.941831,98.6780277 412.375814,96.7933645 C413.809797,94.9087012 415.079877,92.5529074 416.186092,89.7259124 C417.292308,86.8989175 417.865892,83.7237172 417.906863,80.2002163 C417.906863,75.8982674 416.882605,72.4055471 414.834058,69.7219505 C412.785511,67.0383538 409.958558,65.6965756 406.353116,65.6965756 C402.993498,65.8194884 399.418837,67.0281131 395.629025,69.3224858 C391.839213,71.6168585 388.65377,74.4847813 386.072601,77.9263404 C383.491432,81.3678995 382.200867,84.6864959 382.200867,87.8822293 L382.200867,112.280303 L370.708575,106.134692 L370.708575,52.360601 L363.948404,52.360601 L363.948404,44.9858684 L370.708575,44.9858684 C370.708575,38.348576 369.766258,32.397636 367.881594,27.1328701 C365.996931,21.8681042 363.805018,17.5354921 361.305791,14.134904 C358.806564,10.7343159 356.645379,8.21464082 354.822172,6.57580317 C352.998965,4.93696553 351.677672,3.85125187 350.858253,3.31862964 L363.272386,3.19571743 C366.263265,4.83455507 369.264342,7.8356315 372.275706,12.1990367 C375.28707,16.562442 377.755532,21.7042179 379.681166,27.6245189 C381.606801,33.5448199 382.569603,39.3318786 382.569603,44.9858684 L432.164679,44.9858684 L432.164679,52.360601 Z M491.285452,52.360601 L450.355686,52.360601 L450.355686,62.1935777 C450.560541,62.1935777 450.724422,62.2755183 450.847335,62.4394021 C450.970248,62.6032859 451.113644,62.6852265 451.277528,62.6852265 C451.195586,62.6852265 452.04572,62.4394045 453.827956,61.9477533 C455.610192,61.456102 457.648466,61.0156709 459.942839,60.626447 C462.237211,60.2372231 464.449609,60.042614 466.580098,60.042614 C471.496611,60.042614 475.368307,60.7186244 478.195302,62.0706655 C481.022297,63.4227065 483.06057,65.3278267 484.310184,67.7860832 C485.559798,70.2443396 486.317749,72.9995941 486.58406,76.0519292 C486.850371,79.1042643 486.983525,83.2934802 486.983525,88.6197026 L486.983525,112.894864 C484.730123,111.993503 482.702092,111.102399 480.89937,110.221523 C479.096649,109.340648 477.847054,108.695365 477.150548,108.285656 C477.150548,106.933615 476.904726,106.093723 476.413075,105.765956 C475.061034,106.544404 473.545132,107.394538 471.865323,108.316384 C470.185514,109.23823 467.993602,110.047394 465.28952,110.7439 C462.585438,111.440406 459.369267,111.788654 455.640911,111.788654 C452.076439,111.788654 448.593962,111.133129 445.193374,109.822059 C441.792785,108.510988 439.037531,106.636596 436.927528,104.198825 C434.817524,101.761054 433.762538,99.0057996 433.762538,95.932979 C433.762538,93.0650131 435.094074,90.0639367 437.757185,86.9296597 C440.420296,83.7953827 443.984715,81.193767 448.450547,79.1247344 C452.91638,77.0557019 457.791849,76.0212012 463.0771,76.0212012 C465.945066,76.0212012 468.669593,76.441147 471.250762,77.2810513 C473.831931,78.1209556 475.798507,79.0530305 477.150548,80.0773041 L477.150548,74.4233424 C475.552681,72.2928535 473.954838,70.8179218 472.356972,69.9985029 C470.759105,69.1790841 468.300885,68.7693808 464.982239,68.7693808 C460.68029,68.9332646 457.289996,69.291755 454.811254,69.8448627 C452.332512,70.3979704 449.669441,71.2583472 446.82196,72.4260191 C443.97448,73.5936909 441.587958,74.5052806 439.662324,75.1608157 L439.662324,70.613064 C439.949121,70.3672383 440.358824,70.0189906 440.891446,69.5683102 C441.424069,69.1176298 441.782559,68.7898672 441.966928,68.5850125 C442.151297,68.3801578 442.263966,68.2572468 442.304937,68.2162759 L442.304937,52.360601 L429.706435,52.360601 L429.706435,44.9858684 L491.285452,44.9858684 L491.285452,52.360601 Z M477.150548,91.2623151 C477.150548,89.3776518 475.040576,87.8002942 470.820569,86.530195 C466.600562,85.2600958 463.609728,84.6250558 461.847978,84.6250558 C457.382145,84.6250558 453.31584,85.5673733 449.648941,87.4520366 C445.982042,89.3366999 443.103877,91.5183698 441.014359,93.9971117 C438.924841,96.4758536 437.880097,98.5141274 437.880097,100.111994 C438.45369,101.832774 439.734013,103.010671 441.721104,103.64572 C443.708194,104.28077 445.828409,104.59829 448.081811,104.59829 C452.260847,104.59829 456.142785,104.04519 459.727742,102.938975 C463.3127,101.832759 466.416202,100.470496 469.038342,98.852144 C471.660482,97.2337918 473.668028,95.687162 475.06104,94.2122081 C476.454052,92.7372542 477.150548,91.7539664 477.150548,91.2623151 Z M550.344768,52.360601 L509.415003,52.360601 L509.415003,62.1935777 C509.619857,62.1935777 509.783739,62.2755183 509.906652,62.4394021 C510.029564,62.6032859 510.172961,62.6852265 510.336844,62.6852265 C510.254902,62.6852265 511.105037,62.4394045 512.887273,61.9477533 C514.669509,61.456102 516.707782,61.0156709 519.002155,60.626447 C521.296528,60.2372231 523.508925,60.042614 525.639414,60.042614 C530.555927,60.042614 534.427623,60.7186244 537.254618,62.0706655 C540.081613,63.4227065 542.119887,65.3278267 543.3695,67.7860832 C544.619114,70.2443396 545.377065,72.9995941 545.643376,76.0519292 C545.909687,79.1042643 546.042841,83.2934802 546.042841,88.6197026 L546.042841,112.894864 C543.789439,111.993503 541.761408,111.102399 539.958687,110.221523 C538.155965,109.340648 536.90637,108.695365 536.209864,108.285656 C536.209864,106.933615 535.964042,106.093723 535.472391,105.765956 C534.12035,106.544404 532.604448,107.394538 530.924639,108.316384 C529.244831,109.23823 527.052918,110.047394 524.348836,110.7439 C521.644754,111.440406 518.428583,111.788654 514.700228,111.788654 C511.135756,111.788654 507.653278,111.133129 504.25269,109.822059 C500.852102,108.510988 498.096847,106.636596 495.986844,104.198825 C493.87684,101.761054 492.821855,99.0057996 492.821855,95.932979 C492.821855,93.0650131 494.15339,90.0639367 496.816501,86.9296597 C499.479612,83.7953827 503.044031,81.193767 507.509863,79.1247344 C511.975696,77.0557019 516.851165,76.0212012 522.136416,76.0212012 C525.004382,76.0212012 527.728909,76.441147 530.310078,77.2810513 C532.891248,78.1209556 534.857823,79.0530305 536.209864,80.0773041 L536.209864,74.4233424 C534.611998,72.2928535 533.014155,70.8179218 531.416288,69.9985029 C529.818421,69.1790841 527.360202,68.7693808 524.041556,68.7693808 C519.739607,68.9332646 516.349312,69.291755 513.87057,69.8448627 C511.391828,70.3979704 508.728757,71.2583472 505.881277,72.4260191 C503.033796,73.5936909 500.647275,74.5052806 498.721641,75.1608157 L498.721641,70.613064 C499.008437,70.3672383 499.41814,70.0189906 499.950763,69.5683102 C500.483385,69.1176298 500.841875,68.7898672 501.026244,68.5850125 C501.210614,68.3801578 501.323282,68.2572468 501.364253,68.2162759 L501.364253,52.360601 L488.765752,52.360601 L488.765752,44.9858684 L550.344768,44.9858684 L550.344768,52.360601 Z M536.209864,91.2623151 C536.209864,89.3776518 534.099892,87.8002942 529.879885,86.530195 C525.659879,85.2600958 522.669045,84.6250558 520.907294,84.6250558 C516.441462,84.6250558 512.375157,85.5673733 508.708258,87.4520366 C505.041358,89.3366999 502.163193,91.5183698 500.073675,93.9971117 C497.984157,96.4758536 496.939414,98.5141274 496.939414,100.111994 C497.513007,101.832774 498.793329,103.010671 500.78042,103.64572 C502.767511,104.28077 504.887725,104.59829 507.141127,104.59829 C511.320163,104.59829 515.202101,104.04519 518.787059,102.938975 C522.372016,101.832759 525.475518,100.470496 528.097658,98.852144 C530.719799,97.2337918 532.727345,95.687162 534.120357,94.2122081 C535.513369,92.7372542 536.209864,91.7539664 536.209864,91.2623151 Z M603.995947,52.360601 L572.899159,52.360601 L572.899159,101.832765 C572.899159,103.266748 573.401045,104.659739 574.404833,106.01178 C575.408621,107.363821 576.504577,108.039832 577.692735,108.039832 C583.797405,108.039832 586.849694,101.730401 586.849694,89.1113514 L599.202371,96.1788034 C597.194795,100.644636 594.460026,104.362693 590.997981,107.333086 C587.535937,110.30348 582.977988,111.788654 577.323998,111.788654 C574.497003,111.747683 571.90563,110.999975 569.549801,109.545506 C567.193972,108.091038 565.319579,106.226888 563.926567,103.953001 C562.533555,101.679113 561.83706,99.4155028 561.83706,97.1621011 L561.83706,52.360601 L548.992734,52.360601 L548.992734,44.9858684 L561.83706,44.9858684 L561.83706,24.3366173 L572.899159,32.0186304 L572.899159,44.9858684 L603.995947,44.9858684 L603.995947,52.360601 Z"/>
    <rect width="600" height="9" y="44"/>
  </g>
</svg>
