<svg id="Layer_1" data-name="Layer 1" xmlns="http://www.w3.org/2000/svg" viewBox="0 0 458.48 87.56"><defs><style>.cls-1{fill:#fc0;}</style></defs><title>logo</title><path class="cls-1" d="M271.88,185.09H232.64v30a18.27,18.27,0,0,0,1.24,6.2,11.12,11.12,0,0,0,3.35,4.71,8,8,0,0,0,5.2,1.78,13.5,13.5,0,0,0,7.41-1.94,15,15,0,0,0,4.78-4.73,21.37,21.37,0,0,0,2.48-5.43,16.54,16.54,0,0,0,.75-4.28V192.77h9.52v39.89q-1-.56-4.24-2l-5.37-2.39v-3.75a54.48,54.48,0,0,1-4.73,3.12,19.46,19.46,0,0,1-4.73,2,21.91,21.91,0,0,1-5.67.66,18.7,18.7,0,0,1-9.12-2.43,19.42,19.42,0,0,1-7.12-6.65,16.62,16.62,0,0,1-2.7-9.13v-27H218v-5.67h53.86v5.67Z" transform="translate(-218.02 -145.1)"/><path class="cls-1" d="M318.42,185.09H271v-5.67h47.44v5.67Zm-3.89,16.78q0,3-3.45,6.28a25.25,25.25,0,0,1-5.79,4.36l-7-8a11.11,11.11,0,0,0,6.63-2.84q2.7-2.46,2.7-4.85a3.7,3.7,0,0,0-1.55-2.37,5.82,5.82,0,0,0-4-1.38q-3,0-6.89,2.81a24.72,24.72,0,0,0-6.54,7.27,17.14,17.14,0,0,0-2.7,9V232l-9-4.69V192.63h9.1v3.56a20,20,0,0,1,2.77-1.73,33.63,33.63,0,0,1,5.56-2.46,19.4,19.4,0,0,1,6.41-1.1,15.92,15.92,0,0,1,6,1.34,15.19,15.19,0,0,1,5.56,3.87A8.34,8.34,0,0,1,314.53,201.87Z" transform="translate(-218.02 -145.1)"/><path class="cls-1" d="M369,185.09H333.32v17.44q0.94-1.17,3.26-3.56a34.69,34.69,0,0,1,6-4.78,13.4,13.4,0,0,1,7.34-2.39,15.59,15.59,0,0,1,7,1.57,17.69,17.69,0,0,1,5.46,4.13,18.78,18.78,0,0,1,3.47,5.55,15.45,15.45,0,0,1,1.2,5.72,16.58,16.58,0,0,1-2.11,7.95,26.17,26.17,0,0,1-5.41,6.94,30.65,30.65,0,0,1-6.89,4.83,14.24,14.24,0,0,1-6.17,1.8,9.51,9.51,0,0,1-5.84-1.95,76.88,76.88,0,0,1-7.67-7.1v9.61l-8.2-3.52V185.09h-7.69v-5.67h7.69a38.29,38.29,0,0,0-1.85-11.79,51.78,51.78,0,0,0-4.37-10.1,63.26,63.26,0,0,0-5.21-7.73,39.34,39.34,0,0,0-4.18-4.69H319.4a42.37,42.37,0,0,1,3.75,3.63,36.19,36.19,0,0,1,4.36,6.35,45.3,45.3,0,0,1,4.12,10.36,52.48,52.48,0,0,1,1.69,14H369v5.67Zm-7.12,28.5a10.23,10.23,0,0,0-1.29-4.48,20.57,20.57,0,0,0-3.59-4.95,20,20,0,0,0-5.6-4,15.55,15.55,0,0,0-7-1.64,9,9,0,0,0-4.57,1.36,15.6,15.6,0,0,0-3.87,3.12,5,5,0,0,0-1.55,2.65q0,3.23,2.84,8a30.84,30.84,0,0,0,7.2,8.27q4.36,3.52,8.53,3.52a6.6,6.6,0,0,0,4.43-1.78,12.76,12.76,0,0,0,3.26-4.55A13.52,13.52,0,0,0,361.83,213.59Z" transform="translate(-218.02 -145.1)"/><path class="cls-1" d="M414.14,185.09H382.92v7.47a0.45,0.45,0,0,1,.38.19,0.41,0.41,0,0,0,.33.19q-0.09,0,1.95-.57a47.2,47.2,0,0,1,4.66-1,30.08,30.08,0,0,1,5.06-.45,20.87,20.87,0,0,1,8.86,1.55,9.71,9.71,0,0,1,4.66,4.36,17.06,17.06,0,0,1,1.73,6.3q0.3,3.49.3,9.59v18.52q-2.58-1-4.64-2t-2.86-1.48a2.29,2.29,0,0,0-.56-1.92q-1.55.89-3.47,1.95a22,22,0,0,1-5,1.85,29.77,29.77,0,0,1-7.36.8,22,22,0,0,1-8-1.5,15.55,15.55,0,0,1-6.3-4.29,9.37,9.37,0,0,1-2.41-6.3q0-3.28,3-6.87a23.4,23.4,0,0,1,8.16-6,26.22,26.22,0,0,1,11.16-2.37,19.9,19.9,0,0,1,6.23,1,15.48,15.48,0,0,1,4.5,2.15v-4.32a11.21,11.21,0,0,0-3.66-3.35,13,13,0,0,0-5.62-.93,45.72,45.72,0,0,0-7.76.81,38.21,38.21,0,0,0-6.09,2q-3.26,1.32-5.46,2.07V199l0.94-.79a9.66,9.66,0,0,0,.82-0.74l0.26-.28V185.09h-9.61v-5.67h47v5.67Zm-10.78,29.66q0-2.15-4.83-3.6a28.06,28.06,0,0,0-6.84-1.45,20.11,20.11,0,0,0-9.3,2.15,21.06,21.06,0,0,0-6.59,5q-2.39,2.83-2.39,4.65a4.18,4.18,0,0,0,2.93,2.69,15.88,15.88,0,0,0,4.85.72,30.09,30.09,0,0,0,8.88-1.26,30.8,30.8,0,0,0,7.1-3.11,22.91,22.91,0,0,0,4.59-3.53Q403.36,215.3,403.36,214.74Z" transform="translate(-218.02 -145.1)"/><path class="cls-1" d="M493.41,185.09h-80.3v-5.67h80.3v5.67Zm-40,20.53q0-11.25-10.64-11.25a13,13,0,0,0-6.35,1.83,19.69,19.69,0,0,0-5.81,5.06,26.5,26.5,0,0,0-4.12,7.69,27.56,27.56,0,0,0-1.57,9.23v13.64l-7.69-4V192.54h8.06v5.58q1-.75,3.26-2.53a27.81,27.81,0,0,1,5.53-3.28,17,17,0,0,1,14.18.09,19.64,19.64,0,0,1,6.09,4.45,21.36,21.36,0,0,1,4.22,6.73,22.07,22.07,0,0,1,1.55,8.27A26.3,26.3,0,0,1,458,222a35.74,35.74,0,0,1-6.84,10.29l-9-5.67a29.54,29.54,0,0,1,3.14-3.28,38.44,38.44,0,0,0,4-4.38,20.5,20.5,0,0,0,3-5.53A22.55,22.55,0,0,0,453.42,205.62Z" transform="translate(-218.02 -145.1)"/><path class="cls-1" d="M545.44,185.09H507.61v14.06q1-1.12,2.34-2.48a22.35,22.35,0,0,1,3-2.58,17,17,0,0,1,4.13-2.11,15.91,15.91,0,0,1,5.48-.89,17.09,17.09,0,0,1,10.2,3.16,21.92,21.92,0,0,1,6.91,8.09,21.42,21.42,0,0,1,2.48,9.7,18.32,18.32,0,0,1-2.39,9.19,29.74,29.74,0,0,1-4.78,6.56,43.33,43.33,0,0,1-3.56,3.23l-7.69-4.59a30.9,30.9,0,0,1,2.81-3.14,46.67,46.67,0,0,0,3.8-4.36,22.29,22.29,0,0,0,2.91-5.39,20.46,20.46,0,0,0,1.31-7.27,12.81,12.81,0,0,0-2.34-8,7.69,7.69,0,0,0-6.47-3.07,17.16,17.16,0,0,0-8.18,2.77,25.55,25.55,0,0,0-7.29,6.56,12.78,12.78,0,0,0-3,7.59v18.61l-8.77-4.68v-41h-5.16v-5.67h5.16a40.23,40.23,0,0,0-2.16-13.62,39,39,0,0,0-10-15.68,29.34,29.34,0,0,0-3-2.48l9.47-.09q3.42,1.88,6.87,6.87a45.21,45.21,0,0,1,5.65,11.77,42.68,42.68,0,0,1,2.2,13.24h37.83v5.67Z" transform="translate(-218.02 -145.1)"/><path class="cls-1" d="M590.53,185.09H559.31v7.47a0.45,0.45,0,0,1,.38.19,0.41,0.41,0,0,0,.33.19q-0.09,0,1.95-.57a47.23,47.23,0,0,1,4.66-1,30.08,30.08,0,0,1,5.06-.45,20.87,20.87,0,0,1,8.86,1.55,9.71,9.71,0,0,1,4.66,4.36,17,17,0,0,1,1.73,6.3q0.3,3.49.3,9.59v18.52q-2.58-1-4.64-2t-2.86-1.48a2.29,2.29,0,0,0-.56-1.92q-1.55.89-3.47,1.95a22,22,0,0,1-5,1.85,29.77,29.77,0,0,1-7.36.8,22,22,0,0,1-8-1.5,15.55,15.55,0,0,1-6.3-4.29,9.38,9.38,0,0,1-2.41-6.3q0-3.28,3-6.87a23.4,23.4,0,0,1,8.16-6A26.22,26.22,0,0,1,569,203.09a19.9,19.9,0,0,1,6.23,1,15.48,15.48,0,0,1,4.5,2.15v-4.32a11.21,11.21,0,0,0-3.66-3.35,13,13,0,0,0-5.62-.93,45.72,45.72,0,0,0-7.76.81,38.22,38.22,0,0,0-6.09,2q-3.26,1.32-5.46,2.07V199l0.94-.79a9.58,9.58,0,0,0,.82-0.74l0.26-.28V185.09h-9.61v-5.67h47v5.67Zm-10.78,29.66q0-2.15-4.83-3.6a28.05,28.05,0,0,0-6.84-1.45,20.11,20.11,0,0,0-9.3,2.15,21.06,21.06,0,0,0-6.59,5q-2.39,2.83-2.39,4.65a4.18,4.18,0,0,0,2.93,2.69,15.88,15.88,0,0,0,4.85.72,30.09,30.09,0,0,0,8.88-1.26,30.8,30.8,0,0,0,7.1-3.11,22.89,22.89,0,0,0,4.59-3.53Q579.75,215.3,579.75,214.74Z" transform="translate(-218.02 -145.1)"/><path class="cls-1" d="M635.58,185.09H604.36v7.47a0.45,0.45,0,0,1,.38.19,0.41,0.41,0,0,0,.33.19q-0.09,0,1.95-.57a47.23,47.23,0,0,1,4.66-1,30.08,30.08,0,0,1,5.06-.45,20.87,20.87,0,0,1,8.86,1.55,9.71,9.71,0,0,1,4.66,4.36,17,17,0,0,1,1.73,6.3q0.3,3.49.3,9.59v18.52q-2.58-1-4.64-2t-2.86-1.48a2.29,2.29,0,0,0-.56-1.92q-1.55.89-3.47,1.95a22,22,0,0,1-5,1.85,29.77,29.77,0,0,1-7.36.8,22,22,0,0,1-8-1.5,15.55,15.55,0,0,1-6.3-4.29,9.38,9.38,0,0,1-2.41-6.3q0-3.28,3-6.87a23.4,23.4,0,0,1,8.16-6,26.22,26.22,0,0,1,11.16-2.37,19.9,19.9,0,0,1,6.23,1,15.48,15.48,0,0,1,4.5,2.15v-4.32a11.21,11.21,0,0,0-3.66-3.35,13,13,0,0,0-5.62-.93,45.72,45.72,0,0,0-7.76.81,38.22,38.22,0,0,0-6.09,2q-3.26,1.32-5.46,2.07V199l0.94-.79a9.58,9.58,0,0,0,.82-0.74l0.26-.28V185.09h-9.61v-5.67h47v5.67ZM624.8,214.74q0-2.15-4.83-3.6a28.05,28.05,0,0,0-6.84-1.45,20.11,20.11,0,0,0-9.3,2.15,21.06,21.06,0,0,0-6.59,5q-2.39,2.83-2.39,4.65a4.18,4.18,0,0,0,2.93,2.69,15.88,15.88,0,0,0,4.85.72,30.09,30.09,0,0,0,8.88-1.26,30.8,30.8,0,0,0,7.1-3.11A22.89,22.89,0,0,0,623.2,217Q624.8,215.3,624.8,214.74Z" transform="translate(-218.02 -145.1)"/><path class="cls-1" d="M676.5,185.09H652.78v37.69a5.28,5.28,0,0,0,1.15,3.18,3.19,3.19,0,0,0,2.51,1.54q7,0,7-14.42l9.42,5.38a24,24,0,0,1-6.26,8.5q-4,3.4-10.43,3.4a11.4,11.4,0,0,1-5.93-1.71,12.86,12.86,0,0,1-4.29-4.26,9.84,9.84,0,0,1-1.59-5.17V185.09h-9.8v-5.67h9.8V163.66l8.44,5.86v9.89H676.5v5.67Z" transform="translate(-218.02 -145.1)"/></svg>